mtllib meow.mtl
# vertices
v -20 -12 -12
v -20 -12 12
v -20 -8 12
v -20 -8 -12
v 20 -8 12
v 20 -12 12
v 20 -12 -12
v 20 -8 -12
v -8 -12 -14
v -8 -12 -12
v -8 20 -12
v -8 20 -14
v -6 20 -12
v -6 -12 -12
v -6 -12 -14
v -6 20 -14
v 6 -12 -14
v 6 -12 -12
v 6 20 -12
v 6 20 -14
v 8 20 -12
v 8 -12 -12
v 8 -12 -14
v 8 20 -14

# texture coordinates
vt 0.375 -0.375
vt -0.375 -0.375
vt -0.375 -0.25
vt 0.375 -0.25
vt 0.625 -0.25
vt -0.625 -0.25
vt -0.625 -0.375
vt 0.625 -0.375
vt -0.625 0.375
vt 0.625 0.375
vt 0.4375 -0.375
vt 0.375 0.625
vt 0.4375 0.625
vt -0.1875 0.625
vt -0.25 0.625
vt -0.25 -0.375
vt -0.1875 -0.375
vt -0.1875 0.375
vt -0.25 0.375
vt -0.25 0.4375
vt -0.1875 0.4375
vt 0.1875 0.625
vt 0.125 0.625
vt 0.125 -0.375
vt 0.1875 -0.375
vt 0.1875 0.375
vt 0.125 0.375
vt 0.125 0.4375
vt 0.1875 0.4375

# normals
vn -1 0 -0
vn 0 0 1
vn 0 -1 -0
vn 0 1 -0
vn 0 0 -1
vn 1 0 -0

o entity0_brush0
usemtl __TB_empty
f  1/1/1  2/2/1  3/3/1  4/4/1
usemtl __TB_empty
f  5/5/2  3/6/2  2/7/2  6/8/2
usemtl __TB_empty
f  6/8/3  2/7/3  1/9/3  7/10/3
usemtl __TB_empty
f  8/10/4  4/9/4  3/7/4  5/8/4
usemtl __TB_empty
f  7/8/5  1/7/5  4/6/5  8/5/5
usemtl __TB_empty
f  8/4/6  5/3/6  6/2/6  7/1/6

o entity0_brush1
usemtl __TB_empty
f  9/11/1  10/1/1  11/12/1  12/13/1
usemtl __TB_empty
f  13/14/2  11/15/2  10/16/2  14/17/2
usemtl __TB_empty
f  14/18/3  10/19/3  9/20/3  15/21/3
usemtl __TB_empty
f  16/21/4  12/20/4  11/19/4  13/18/4
usemtl __TB_empty
f  15/17/5  9/16/5  12/15/5  16/14/5
usemtl __TB_empty
f  16/13/6  13/12/6  14/1/6  15/11/6

o entity0_brush2
usemtl __TB_empty
f  17/11/1  18/1/1  19/12/1  20/13/1
usemtl __TB_empty
f  21/22/2  19/23/2  18/24/2  22/25/2
usemtl __TB_empty
f  22/26/3  18/27/3  17/28/3  23/29/3
usemtl __TB_empty
f  24/29/4  20/28/4  19/27/4  21/26/4
usemtl __TB_empty
f  23/25/5  17/24/5  20/23/5  24/22/5
usemtl __TB_empty
f  24/13/6  21/12/6  22/1/6  23/11/6

