mtllib meow.mtl
# vertices
v -20 -12 -12
v -20 -12 12
v -20 -8 12
v -20 -8 -12
v 20 -8 12
v 20 -12 12
v 20 -12 -12
v 20 -8 -12
v -8 -12 -14
v -8 -12 -12
v -8 20 -12
v -8 20 -14
v -6 20 -12
v -6 -12 -12
v -6 -12 -14
v -6 20 -14
v 6 -12 -14
v 6 -12 -12
v 6 20 -12
v 6 20 -14
v 8 20 -12
v 8 -12 -12
v 8 -12 -14
v 8 20 -14
v 14 -8 -6
v 14 -8 8
v 14 -6.444444444444445 8
v 14 -6.444444444444445 -6
v 24 -6.444444444444445 8
v 24 -8 8
v 24 -8 -6
v 24 -6.444444444444445 -6
v 14 -6.444444444445253 -6
v 14 -6.444444444445253 -4.25
v 14 -1.7777777777777786 -4.25
v 14 -1.7777777777777786 -6
v 24 -1.7777777777777795 -4.25
v 24 -6.444444444445253 -4.25
v 24 -6.444444444445253 -6
v 24 -1.7777777777777795 -6
v 14 -6.444444444445253 6.25
v 14 -6.444444444445253 8
v 14 -1.7777777777777786 8
v 14 -1.7777777777777786 6.25
v 24 -1.7777777777777795 8
v 24 -6.444444444445253 8
v 24 -6.444444444445253 6.25
v 24 -1.7777777777777795 6.25
v 14 -1.7777777777773736 -6
v 14 -1.7777777777773736 8
v 14 -0.22222222222222254 8
v 14 -0.22222222222222254 -6
v 24 -0.22222222222222154 8
v 24 -1.7777777777773747 8
v 24 -1.7777777777773747 -6
v 24 -0.22222222222222154 -6
v 14 -0.22222222222262644 6.25
v 14 -0.22222222222262644 8
v 14 4.444444444444444 8
v 14 4.444444444444444 6.25
v 24 4.444444444444444 8
v 24 -0.22222222222262533 8
v 24 -0.22222222222262533 6.25
v 24 4.444444444444444 6.25
v 14 -0.22222222222262644 -6
v 14 -0.22222222222262644 -4.25
v 14 4.444444444444444 -4.25
v 14 4.444444444444444 -6
v 24 4.444444444444444 -4.25
v 24 -0.22222222222262533 -4.25
v 24 -0.22222222222262533 -6
v 24 4.444444444444444 -6
v 14 4.444444444445253 -6
v 14 4.444444444445253 8
v 14 6 8
v 14 6 -6
v 24 6 8
v 24 4.444444444445253 8
v 24 4.444444444445253 -6
v 24 6 -6

# texture coordinates
vt 0.375 -0.375
vt -0.375 -0.375
vt -0.375 -0.25
vt 0.375 -0.25
vt 0.625 -0.25
vt -0.625 -0.25
vt -0.625 -0.375
vt 0.625 -0.375
vt -0.625 0.375
vt 0.625 0.375
vt 0.4375 -0.375
vt 0.375 0.625
vt 0.4375 0.625
vt -0.1875 0.625
vt -0.25 0.625
vt -0.25 -0.375
vt -0.1875 -0.375
vt -0.1875 0.375
vt -0.25 0.375
vt -0.25 0.4375
vt -0.1875 0.4375
vt 0.1875 0.625
vt 0.125 0.625
vt 0.125 -0.375
vt 0.1875 -0.375
vt 0.1875 0.375
vt 0.125 0.375
vt 0.125 0.4375
vt 0.1875 0.4375
vt 0.25 -0.25
vt -0.25 -0.25
vt -0.25 -0.1875
vt 0.25 -0.1875
vt 0.625 -0.1875
vt 0.3125 -0.1875
vt 0.3125 -0.25
vt 0.3125 0.25
vt 0.625 0.25
vt 0.1875 -0.1875
vt 0.1875 -0
vt 0.25 -0
vt 0.625 -0
vt 0.3125 -0
vt 0.625 0.1875
vt 0.3125 0.1875
vt -0.18749999 -0.1875
vt -0.25 -0
vt -0.18749999 -0
vt 0.3125 -0.18749999
vt 0.625 -0.18749999
vt 0.25 -0.24999997
vt -0.25 -0.24999997
vt -0.25 -0.18749999
vt 0.25 -0.18749999
vt 0.3125 -0.24999997
vt 0.625 -0.24999997

# normals
vn -1 0 -0
vn 0 0 1
vn 0 -1 -0
vn 0 1 -0
vn 0 0 -1
vn 1 0 -0

o entity0_brush0
usemtl __TB_empty
f  1/1/1  2/2/1  3/3/1  4/4/1
usemtl __TB_empty
f  5/5/2  3/6/2  2/7/2  6/8/2
usemtl __TB_empty
f  6/8/3  2/7/3  1/9/3  7/10/3
usemtl __TB_empty
f  8/10/4  4/9/4  3/7/4  5/8/4
usemtl __TB_empty
f  7/8/5  1/7/5  4/6/5  8/5/5
usemtl __TB_empty
f  8/4/6  5/3/6  6/2/6  7/1/6

o entity0_brush1
usemtl __TB_empty
f  9/11/1  10/1/1  11/12/1  12/13/1
usemtl __TB_empty
f  13/14/2  11/15/2  10/16/2  14/17/2
usemtl __TB_empty
f  14/18/3  10/19/3  9/20/3  15/21/3
usemtl __TB_empty
f  16/21/4  12/20/4  11/19/4  13/18/4
usemtl __TB_empty
f  15/17/5  9/16/5  12/15/5  16/14/5
usemtl __TB_empty
f  16/13/6  13/12/6  14/1/6  15/11/6

o entity0_brush2
usemtl __TB_empty
f  17/11/1  18/1/1  19/12/1  20/13/1
usemtl __TB_empty
f  21/22/2  19/23/2  18/24/2  22/25/2
usemtl __TB_empty
f  22/26/3  18/27/3  17/28/3  23/29/3
usemtl __TB_empty
f  24/29/4  20/28/4  19/27/4  21/26/4
usemtl __TB_empty
f  23/25/5  17/24/5  20/23/5  24/22/5
usemtl __TB_empty
f  24/13/6  21/12/6  22/1/6  23/11/6

o entity0_brush3
usemtl __TB_empty
f  25/30/1  26/31/1  27/32/1  28/33/1
usemtl __TB_empty
f  29/34/2  27/35/2  26/36/2  30/5/2
usemtl __TB_empty
f  30/5/3  26/36/3  25/37/3  31/38/3
usemtl __TB_empty
f  32/38/4  28/37/4  27/36/4  29/5/4
usemtl __TB_empty
f  31/5/5  25/36/5  28/35/5  32/34/5
usemtl __TB_empty
f  32/33/6  29/32/6  30/31/6  31/30/6

o entity0_brush4
usemtl __TB_empty
f  33/33/1  34/39/1  35/40/1  36/41/1
usemtl __TB_empty
f  37/42/2  35/43/2  34/35/2  38/34/2
usemtl __TB_empty
f  38/44/3  34/45/3  33/37/3  39/38/3
usemtl __TB_empty
f  40/38/4  36/37/4  35/45/4  37/44/4
usemtl __TB_empty
f  39/34/5  33/35/5  36/43/5  40/42/5
usemtl __TB_empty
f  40/41/6  37/40/6  38/39/6  39/33/6

o entity0_brush5
usemtl __TB_empty
f  41/46/1  42/32/1  43/47/1  44/48/1
usemtl __TB_empty
f  45/42/2  43/43/2  42/35/2  46/34/2
usemtl __TB_empty
f  46/5/3  42/36/3  41/49/3  47/50/3
usemtl __TB_empty
f  48/50/4  44/49/4  43/36/4  45/5/4
usemtl __TB_empty
f  47/34/5  41/35/5  44/43/5  48/42/5
usemtl __TB_empty
f  48/48/6  45/47/6  46/32/6  47/46/6

o entity0_brush6
usemtl __TB_empty
f  49/30/1  50/31/1  51/32/1  52/33/1
usemtl __TB_empty
f  53/34/2  51/35/2  50/36/2  54/5/2
usemtl __TB_empty
f  54/5/3  50/36/3  49/37/3  55/38/3
usemtl __TB_empty
f  56/38/4  52/37/4  51/36/4  53/5/4
usemtl __TB_empty
f  55/5/5  49/36/5  52/35/5  56/34/5
usemtl __TB_empty
f  56/33/6  53/32/6  54/31/6  55/30/6

o entity0_brush7
usemtl __TB_empty
f  57/46/1  58/32/1  59/47/1  60/48/1
usemtl __TB_empty
f  61/42/2  59/43/2  58/35/2  62/34/2
usemtl __TB_empty
f  62/5/3  58/36/3  57/49/3  63/50/3
usemtl __TB_empty
f  64/50/4  60/49/4  59/36/4  61/5/4
usemtl __TB_empty
f  63/34/5  57/35/5  60/43/5  64/42/5
usemtl __TB_empty
f  64/48/6  61/47/6  62/32/6  63/46/6

o entity0_brush8
usemtl __TB_empty
f  65/33/1  66/39/1  67/40/1  68/41/1
usemtl __TB_empty
f  69/42/2  67/43/2  66/35/2  70/34/2
usemtl __TB_empty
f  70/44/3  66/45/3  65/37/3  71/38/3
usemtl __TB_empty
f  72/38/4  68/37/4  67/45/4  69/44/4
usemtl __TB_empty
f  71/34/5  65/35/5  68/43/5  72/42/5
usemtl __TB_empty
f  72/41/6  69/40/6  70/39/6  71/33/6

o entity0_brush9
usemtl __TB_empty
f  73/51/1  74/52/1  75/53/1  76/54/1
usemtl __TB_empty
f  77/50/2  75/49/2  74/55/2  78/56/2
usemtl __TB_empty
f  78/5/3  74/36/3  73/37/3  79/38/3
usemtl __TB_empty
f  80/38/4  76/37/4  75/36/4  77/5/4
usemtl __TB_empty
f  79/56/5  73/55/5  76/49/5  80/50/5
usemtl __TB_empty
f  80/54/6  77/53/6  78/52/6  79/51/6

